<svg width="49" height="45" viewBox="0 0 49 45" fill="none" xmlns="http://www.w3.org/2000/svg">
<ellipse cx="24.0729" cy="26.8204" rx="17.36" ry="17.3541" fill="#92D48B"/>
<ellipse cx="24.0725" cy="26.8203" rx="13.5022" ry="13.4977" fill="#5BAE52"/>
<path d="M17.8027 25.9147L22.9877 30.7989L31.2359 22.482" stroke="white" stroke-width="2.48868" stroke-linecap="round" stroke-linejoin="round"/>
<path fill-rule="evenodd" clip-rule="evenodd" d="M33.5391 5.1271V5.12746C36.0198 5.12881 38.0543 7.03741 38.2547 9.46589H38.2857C38.4862 7.03654 40.5221 5.12746 43.004 5.12746C43.0054 5.12746 43.0068 5.12746 43.0081 5.12746V5.12709C43.0068 5.1271 43.0054 5.1271 43.004 5.1271C40.4177 5.1271 38.3157 3.05403 38.2702 0.479453C38.2247 3.05315 36.1242 5.12569 33.5391 5.1271ZM38.2856 0C38.2772 0.102067 38.272 0.205053 38.2702 0.308854C38.2684 0.205053 38.2632 0.102067 38.2548 0H38.2856Z" fill="#5BAE52"/>
<path fill-rule="evenodd" clip-rule="evenodd" d="M41.4297 15.7764C43.3901 15.7756 44.9791 14.1867 44.9791 12.2267C44.9791 12.0933 44.9718 11.9617 44.9574 11.8322H45.0023C44.988 11.9617 44.9806 12.0933 44.9806 12.2267C44.9806 14.1871 46.5704 15.7764 48.5315 15.7764V15.7767C46.7039 15.7767 45.1988 17.1569 45.0023 18.9316H44.9572C44.7608 17.1575 43.2566 15.7775 41.4297 15.7767V15.7764Z" fill="#5BAE52"/>
<path fill-rule="evenodd" clip-rule="evenodd" d="M3.55017 36.3645C3.50843 38.2887 1.935 39.8357 0.000119598 39.8357C7.97318e-05 39.8357 3.98658e-05 39.8357 0 39.8357V39.836C1.8276 39.836 3.33271 41.2163 3.52914 42.9909H3.57103C3.76746 41.2162 5.2726 39.836 7.10022 39.836C7.10075 39.836 7.10127 39.836 7.1018 39.836V39.8357C7.10127 39.8357 7.10075 39.8357 7.10022 39.8357C5.16534 39.8357 3.59191 38.2887 3.55017 36.3645ZM3.571 35.8915H3.52934C3.54085 35.9955 3.54786 36.101 3.55017 36.2075C3.55248 36.101 3.55949 35.9955 3.571 35.8915Z" fill="#5BAE52"/>
</svg>
